<?xml version='1.0' encoding='utf-8'?>
<svg xmlns="http://www.w3.org/2000/svg" width="91.44mm" height="91.44mm" version="1.1" style="shape-rendering:geometricPrecision; text-rendering:geometricPrecision; image-rendering:optimizeQuality; fill-rule:evenodd; clip-rule:evenodd" viewBox="0 0 9144 9144"> <defs> <style type="text/css">  .fil1 {fill:#FCCF4D} .fil0 {fill:none} .fil2 {fill:#364F6B;fill-rule:nonzero}  </style> </defs> <g id="Layer_x0020_1"> <metadata id="CorelCorpID_0Corel-Layer"/> <g id="_3166632782656"> <polygon class="fil0" points="0,0 9144,0 9144,9144 0,9144 "/> <path class="fil1" d="M2834 4718c0,508 205,967 538,1300 333,333 792,538 1300,538 355,0 687,-100 967,-274 243,-151 449,-357 599,-601l-33 4c-70,7 -139,11 -208,11 -554,0 -1055,-225 -1418,-587 -363,-363 -587,-864 -587,-1418 0,-157 18,-310 53,-457 21,-94 50,-184 84,-272 -352,108 -659,320 -886,600 -256,315 -409,718 -409,1156z"/> <path class="fil2" d="M6468 5441c-166,336 -424,618 -741,815 -307,190 -669,300 -1055,300 -554,0 -1055,-224 -1418,-587 -363,-363 -587,-864 -587,-1418 0,-477 167,-916 447,-1261 284,-351 685,-604 1144,-700 45,-10 89,19 98,64 4,19 1,38 -7,54 -62,125 -110,257 -142,396 -32,135 -48,275 -48,420 0,508 205,967 538,1300 333,332 792,538 1300,538 66,0 129,-3 191,-10 64,-6 127,-16 189,-29 45,-10 89,19 98,64 4,19 1,38 -7,54zm-829 674c243,-151 449,-357 599,-601l-33 4c-70,7 -139,11 -208,11 -554,0 -1055,-225 -1418,-587 -363,-363 -587,-864 -587,-1418 0,-157 18,-310 53,-457 21,-94 50,-184 84,-272 -352,108 -659,320 -886,600 -256,315 -409,718 -409,1156 0,508 205,967 538,1300 333,333 792,538 1300,538 355,0 687,-100 967,-274z"/> </g> </g> </svg>