<?xml version='1.0' encoding='utf-8'?>
<svg xmlns="http://www.w3.org/2000/svg" width="91.44mm" height="91.44mm" version="1.1" style="shape-rendering:geometricPrecision; text-rendering:geometricPrecision; image-rendering:optimizeQuality; fill-rule:evenodd; clip-rule:evenodd" viewBox="0 0 9144 9144"> <defs> <style type="text/css">  .fil1 {fill:#E6E9EE} .fil2 {fill:#FCCF4D} .fil0 {fill:none} .fil3 {fill:#364F6B;fill-rule:nonzero}  </style> </defs> <g id="Layer_x0020_1"> <metadata id="CorelCorpID_0Corel-Layer"/> <g id="_3166632776960"> <polygon class="fil0" points="0,0 9144,0 9144,9144 0,9144 "/> <path class="fil1" d="M3340 4533c-462,81 -741,307 -860,573 -56,126 -76,261 -63,394 13,132 59,263 137,380 171,258 494,447 946,447 4,0 8,0 12,1l2709 8c112,-10 207,-48 283,-104 84,-62 146,-146 184,-240 15,-37 26,-77 33,-118l1 -3c7,-40 10,-80 9,-119 -2,-40 -7,-79 -17,-117 -10,-37 -23,-72 -42,-107 -42,-80 -111,-150 -208,-198 -91,-45 -207,-72 -349,-72l-30 0c-56,3 -112,7 -168,11 -47,3 -87,-32 -90,-79l0 -12c4,-57 10,-114 13,-171l1 -10c0,-17 -1,10 -1,-21 0,-65 -7,-127 -22,-186 -15,-62 -38,-122 -67,-178 -31,-61 -69,-118 -113,-171 -46,-55 -98,-106 -156,-153 -60,-47 -125,-91 -196,-129 -70,-38 -145,-70 -223,-96 -78,-26 -160,-46 -246,-60 -82,-13 -169,-20 -259,-20 -90,0 -177,7 -259,20 -86,14 -168,34 -246,60 -78,26 -152,58 -223,96 -71,38 -136,82 -195,129 -18,14 -34,28 -48,40 -12,11 -24,23 -37,35 -2,3 -4,6 -7,8 -17,17 -31,32 -41,43 -12,13 -24,28 -37,44l-29 36c-13,17 -32,27 -51,31l-45 8z"/> <path class="fil2" d="M3034 4396c1,15 3,29 6,43 83,-29 173,-52 271,-69l13 -2 8 -11c13,-15 27,-32 44,-51 17,-19 32,-35 45,-48l3 -3c15,-15 32,-31 50,-48 19,-16 37,-32 54,-46 68,-54 142,-103 222,-146l7 -4c-17,-53 -31,-107 -41,-163 -15,-79 -23,-161 -23,-243 0,-102 12,-201 34,-296 9,-38 19,-76 32,-113 -191,72 -356,193 -482,348 -157,193 -251,441 -251,710 0,51 2,98 8,142z"/> <path class="fil3" d="M2879 4329c-6,-29 -11,-58 -14,-87 -6,-52 -9,-105 -9,-162 0,-309 108,-594 289,-817 185,-227 444,-391 741,-454 46,-9 91,20 101,66 4,19 1,38 -7,55 -38,76 -68,158 -88,243 -19,83 -29,169 -29,258 0,73 6,144 19,212 8,41 18,82 31,122 28,-11 58,-22 87,-32 87,-29 178,-51 273,-66 93,-15 188,-23 285,-23 97,0 192,8 286,23 94,15 185,37 272,66 89,30 173,66 251,108 79,43 153,92 221,146 66,54 127,113 180,176 52,64 98,131 134,202 35,69 63,141 81,215 18,74 27,150 27,227l0 38 -1 16 -2 22 -3 41c25,-2 50,-3 76,-5l35 0c170,0 311,33 425,90 130,65 224,160 282,270 24,46 43,94 56,144 13,51 20,103 22,155 2,52 -2,104 -11,154l0 3c-9,51 -24,102 -44,152 -49,121 -130,232 -241,313 -100,74 -224,124 -369,136l-7 0 -2720 -8c-3,0 -5,1 -8,1 -3,0 -6,-1 -9,-1 -511,-3 -880,-224 -1079,-523 -93,-140 -148,-298 -164,-458 -15,-162 10,-326 78,-479 96,-216 278,-409 553,-539zm878 -492c-17,-53 -31,-107 -41,-163 -15,-79 -23,-161 -23,-243 0,-102 12,-201 34,-296 9,-38 19,-76 32,-113 -191,72 -356,193 -482,348 -157,193 -251,441 -251,710 0,51 2,98 8,142 1,15 3,29 6,43 83,-29 173,-52 271,-69l13 -2 8 -11c13,-15 27,-32 44,-51 17,-19 32,-35 45,-48l3 -3c15,-15 32,-31 50,-48 19,-16 37,-32 54,-46 68,-54 142,-103 222,-146l7 -4zm-245 2322l2709 8c112,-10 207,-48 283,-104 84,-62 146,-146 184,-240 15,-37 26,-77 33,-118l1 -3c7,-40 10,-80 9,-119 -2,-40 -7,-79 -17,-117 -10,-37 -23,-72 -42,-107 -42,-80 -111,-150 -208,-198 -91,-45 -207,-72 -349,-72l-30 0c-56,3 -112,7 -168,11 -47,3 -87,-32 -90,-79l0 -12c4,-57 10,-114 13,-171l1 -10c0,-17 -1,10 -1,-21 0,-65 -7,-127 -22,-186 -15,-62 -38,-122 -67,-178 -31,-61 -69,-118 -113,-171 -46,-55 -98,-106 -156,-153 -60,-47 -125,-91 -196,-129 -70,-38 -145,-70 -223,-96 -78,-26 -160,-46 -246,-60 -82,-13 -169,-20 -259,-20 -90,0 -177,7 -259,20 -86,14 -168,34 -246,60 -78,26 -152,58 -223,96 -71,38 -136,82 -195,129 -18,14 -34,28 -48,40 -12,11 -24,23 -37,35 -2,3 -4,6 -7,8 -17,17 -31,32 -41,43 -12,13 -24,28 -37,44l-29 36c-13,17 -32,27 -51,31l-45 8c-462,81 -741,307 -860,573 -56,126 -76,261 -63,394 13,132 59,263 137,380 171,258 494,447 946,447 4,0 8,0 12,1z"/> </g> </g> </svg>