<?xml version='1.0' encoding='utf-8'?>
<svg xmlns="http://www.w3.org/2000/svg" width="91.44mm" height="91.44mm" version="1.1" style="shape-rendering:geometricPrecision; text-rendering:geometricPrecision; image-rendering:optimizeQuality; fill-rule:evenodd; clip-rule:evenodd" viewBox="0 0 9144 9144"> <defs> <style type="text/css">  .fil1 {fill:#E6E9EE} .fil2 {fill:#FCCF4D} .fil0 {fill:none} .fil3 {fill:#364F6B;fill-rule:nonzero}  </style> </defs> <g id="Layer_x0020_1"> <metadata id="CorelCorpID_0Corel-Layer"/> <g id="_3166743417248"> <polygon class="fil0" points="0,0 9144,0 9144,9144 0,9144 "/> <path class="fil1" d="M6657 5308c-47,3 -88,-33 -91,-80l0 -12c4,-50 9,-100 12,-150l1 -9c0,-21 -1,12 -1,-19 0,-56 -6,-110 -19,-161 -13,-54 -33,-106 -58,-155 -28,-53 -61,-103 -99,-149 -40,-48 -85,-92 -137,-133 -51,-42 -109,-80 -171,-113 -62,-34 -127,-62 -195,-85 -68,-23 -140,-40 -215,-52 -72,-11 -148,-17 -227,-17 -80,0 -156,6 -228,17 -75,12 -147,29 -215,52 -68,23 -133,51 -195,85 -62,33 -119,71 -171,113 -16,12 -30,24 -42,34 -9,9 -20,19 -33,32 -3,4 -6,7 -9,10 -12,12 -23,23 -32,34 -11,11 -21,23 -33,38l-25 31c-13,17 -32,28 -52,31l0 1 -40 6c-298,53 -509,175 -641,328 -19,30 -40,58 -63,85 -18,29 -33,58 -47,88 -37,85 -57,175 -58,265 1,5 1,11 0,17 0,20 1,40 3,60 11,115 52,229 119,331 149,225 432,390 828,390 3,0 7,0 11,1l2390 7c97,-9 179,-41 245,-90 72,-53 126,-126 158,-207 13,-32 23,-67 29,-103 7,-35 9,-71 8,-105 -1,-34 -6,-68 -14,-101 -8,-31 -20,-62 -36,-92 -37,-69 -96,-129 -179,-170 -79,-40 -180,-63 -304,-63 -58,0 -116,6 -174,10z"/> <path class="fil2" d="M3471 5773c-28,-65 -47,-133 -58,-202l0 169 58 33zm130 -886c54,-87 85,-190 85,-301 0,-159 -65,-303 -169,-407 -104,-105 -248,-169 -408,-169 -159,0 -303,64 -407,169 -104,104 -169,248 -169,407 0,159 65,304 169,408 104,104 248,169 407,169 160,0 304,-65 408,-169 9,-9 18,-19 26,-28 18,-27 37,-53 58,-79zm-796 853l0 -188c-28,-9 -56,-19 -83,-31 -28,-11 -54,-24 -80,-37l-134 133 35 129 1 6 6 19 27 101 228 -132zm-726 -553l133 -133c-14,-26 -27,-53 -38,-81 -11,-27 -21,-54 -30,-83l-188 0 -132 229 255 68zm-123 -904l188 0c9,-29 19,-57 30,-84 11,-27 24,-54 38,-80l-133 -133 -255 68 132 229zm552 -727l134 133c26,-14 52,-26 80,-38 27,-11 55,-21 83,-30l0 -189 -228 -131 -69 255zm905 -123l0 188c29,9 57,19 84,30 27,12 54,24 80,38l133 -133 -68 -255 -229 132zm727 553l-133 133c13,26 26,53 37,80 12,27 22,55 31,84l188 0 132 -229 -255 -68z"/> <path class="fil3" d="M4530 6222c-3,1 -5,1 -7,1 -4,0 -7,0 -10,-1 -357,-2 -637,-124 -826,-306 -12,-2 -23,-5 -34,-11l-363 -210c-29,-14 -48,-43 -48,-77l0 -302c0,-38 26,-73 65,-83 24,-5 48,-13 74,-22 8,-2 16,-5 23,-8 3,-36 8,-72 15,-107 -94,43 -199,67 -310,67 -206,0 -393,-84 -528,-219 -136,-135 -219,-322 -219,-529 0,-206 83,-393 219,-528 135,-136 322,-219 528,-219 207,0 394,83 529,219 135,135 219,322 219,528 0,29 -2,57 -5,85 135,-83 302,-146 501,-181l8 -2 5 -6c11,-13 24,-29 38,-45 13,-14 25,-27 37,-39 2,-2 4,-5 6,-7 12,-12 27,-26 46,-43 16,-15 32,-28 47,-41 61,-48 127,-92 198,-130 69,-37 143,-69 223,-96 77,-26 158,-45 242,-59 83,-13 168,-20 254,-20 85,0 170,7 253,20 84,14 165,33 242,59 80,27 154,59 223,96 71,38 137,82 198,130 59,48 112,101 160,157 47,57 87,117 119,180 32,62 56,126 73,193 16,66 25,133 25,202 0,15 -1,-11 -1,20l0 15 -1 14 -1 20 -2 24c30,-3 56,-4 86,-4 152,0 279,30 380,80 118,59 201,145 254,244 22,40 38,84 50,129 12,45 18,92 20,139 2,48 -2,95 -10,141 -8,45 -21,91 -39,136 -44,109 -117,208 -216,281 -90,66 -202,111 -332,123l0 -1c-2,0 -5,1 -7,1l-2401 -8zm-987 -1427c18,-27 37,-53 58,-79 54,-87 85,-190 85,-301 0,-159 -65,-303 -169,-407 -104,-105 -248,-169 -408,-169 -159,0 -303,64 -407,169 -104,104 -169,248 -169,407 0,159 65,304 169,408 104,104 248,169 407,169 160,0 304,-65 408,-169 9,-9 18,-19 26,-28zm198 20c-19,30 -40,58 -63,85 -18,29 -33,58 -47,88 -37,85 -57,175 -58,265 1,5 1,11 0,17 0,20 1,40 3,60 11,115 52,229 119,331 149,225 432,390 828,390 3,0 7,0 11,1l2390 7c97,-9 179,-41 245,-90 72,-53 126,-126 158,-207 13,-32 23,-67 29,-103 7,-35 9,-71 8,-105 -1,-34 -6,-68 -14,-101 -8,-31 -20,-62 -36,-92 -37,-69 -96,-129 -179,-170 -79,-40 -180,-63 -304,-63 -58,0 -116,6 -174,10 -47,3 -88,-33 -91,-80l0 -12c4,-50 9,-100 12,-150l1 -9c0,-21 -1,12 -1,-19 0,-56 -6,-110 -19,-161 -13,-54 -33,-106 -58,-155 -28,-53 -61,-103 -99,-149 -40,-48 -85,-92 -137,-133 -51,-42 -109,-80 -171,-113 -62,-34 -127,-62 -195,-85 -68,-23 -140,-40 -215,-52 -72,-11 -148,-17 -227,-17 -80,0 -156,6 -228,17 -75,12 -147,29 -215,52 -68,23 -133,51 -195,85 -62,33 -119,71 -171,113 -16,12 -30,24 -42,34 -9,9 -20,19 -33,32 -3,4 -6,7 -9,10 -12,12 -23,23 -32,34 -11,11 -21,23 -33,38l-25 31c-13,17 -32,28 -52,31l0 1 -40 6c-298,53 -509,175 -641,328zm-328 -1365c29,9 57,19 84,30 27,12 54,24 80,38l133 -133 -68 -255 -229 132 0 188zm18 188c-38,-16 -77,-29 -117,-39 -41,-7 -72,-42 -72,-85l0 -301c0,-30 15,-58 43,-74l364 -211c7,-5 16,-8 25,-11 45,-12 92,15 104,61l109 406c10,30 3,64 -21,87l-214 214c-27,27 -70,33 -105,12 -36,-22 -75,-42 -116,-59zm709 177l-133 133c13,26 26,53 37,80 12,27 22,55 31,84l188 0 132 -229 -255 -68zm-301 57l214 -213c21,-21 52,-31 83,-23l411 111c7,2 14,4 20,8 41,24 55,76 31,117l-209 363c-14,28 -43,48 -77,48l-302 0c-38,0 -73,-27 -83,-66 -10,-42 -24,-83 -40,-123 -17,-39 -35,-76 -57,-111 -24,-34 -21,-81 9,-111zm-1760 1144l133 -133c-14,-26 -27,-53 -38,-81 -11,-27 -21,-54 -30,-83l-188 0 -132 229 255 68zm300 -58l-214 214c-21,21 -52,30 -83,22l-410 -110c-7,-2 -14,-5 -20,-9 -41,-23 -55,-75 -32,-116l209 -361c13,-30 43,-50 78,-50l301 0c39,0 74,26 83,65 11,42 24,84 41,124 16,39 35,76 56,111 24,33 21,80 -9,110zm198 743l228 -132 0 -188c-28,-9 -56,-19 -83,-31 -28,-11 -54,-24 -80,-37l-134 133 35 129 1 6 6 19 27 101zm357 -9l-362 209c-8,5 -17,10 -27,12 -45,12 -92,-15 -104,-60l-56 -209 -5 -18 -2 -7 -46 -172c-10,-30 -3,-64 20,-88l214 -213c28,-28 71,-34 105,-13 37,23 76,43 116,59 39,16 78,29 118,39 41,7 72,42 72,85l0 302 -1 0c0,30 -15,58 -42,74zm537 -90c-28,-65 -47,-133 -58,-202l0 169 58 33zm-963 -2217l134 133c26,-14 52,-26 80,-38 27,-11 55,-21 83,-30l0 -189 -228 -131 -69 255zm58 300l-214 -214c-20,-21 -30,-52 -22,-82l111 -411c2,-7 4,-14 8,-20 24,-41 76,-55 117,-32l361 209c29,13 50,43 50,77l0 303c0,38 -27,73 -66,83 -42,10 -83,23 -124,40 -38,16 -75,35 -110,56 -34,24 -81,21 -111,-9zm-742 198l132 229 188 0c9,-29 19,-57 30,-84 11,-27 24,-54 38,-80l-133 -133 -255 68zm9 357l-209 -362c-6,-8 -10,-17 -12,-27 -13,-45 15,-92 60,-104l406 -109c30,-10 63,-3 87,21l214 213 0 1c27,27 33,70 12,104 -22,37 -42,76 -59,117 -16,38 -29,77 -39,117 -7,41 -42,72 -85,72l-301 0 0 -1c-30,0 -59,-15 -74,-42z"/> </g> </g> </svg>